<?xml version="1.0" encoding="utf-8"?>
<!-- Generator: Adobe Illustrator 26.0.2, SVG Export Plug-In . SVG Version: 6.00 Build 0)  -->
<svg version="1.1" id="レイヤー_1" xmlns="http://www.w3.org/2000/svg" xmlns:xlink="http://www.w3.org/1999/xlink" x="0px"
	 y="0px" viewBox="0 0 128 128" style="enable-background:new 0 0 128 128;" xml:space="preserve">
<style type="text/css">
	.st0{fill:#745399;}
</style>
<g>
	<path id="Caminho_107" class="st0" d="M39.8,109.1v15.4l-13.3-7.7L39.8,109.1"/>
	<path id="Caminho_108" class="st0" d="M101.9,109v15.5l-13.4-7.7C93.1,114.1,97.3,111.6,101.9,109"/>
	<path id="Caminho_109" class="st0" d="M101.9,105.3l-13.3-7.7l13.3-7.7V105.3z"/>
	<path id="Caminho_110" class="st0" d="M39.8,105.4l-13.3-7.7L39.8,90V105.4z"/>
	<path id="Caminho_111" class="st0" d="M88.4,114.9V99.5l13.4,7.7L88.4,114.9"/>
	<path id="Caminho_112" class="st0" d="M26.3,95.8V80.4l13.3,7.7L26.3,95.8"/>
	<path id="Caminho_113" class="st0" d="M26.5,78.6c4.6-2.7,8.8-5.1,13.3-7.7v15.4L26.5,78.6"/>
	<path id="Caminho_114" class="st0" d="M88.4,80.4l13.3,7.7l-13.3,7.7V80.4z"/>
	<path id="Caminho_115" class="st0" d="M101.9,70.8v15.4l-13.4-7.7L101.9,70.8"/>
	<path id="Caminho_116" class="st0" d="M39.7,107.2l-13.3,7.7V99.5L39.7,107.2"/>
	<path id="Caminho_117" class="st0" d="M70.8,88.1l-13.3,7.7V80.4L70.8,88.1"/>
	<path id="Caminho_118" class="st0" d="M24,76.6L10.8,69L24,61.3V76.6z"/>
	<path id="Caminho_119" class="st0" d="M24,95.7c-4.4-2.6-8.7-5-13.2-7.7L24,80.4V95.7z"/>
	<path id="Caminho_120" class="st0" d="M57.5,76.7V61.3L70.8,69L57.5,76.7"/>
	<path id="Caminho_121" class="st0" d="M104,109l13.3,7.7l-13.3,7.7V109z"/>
	<path id="Caminho_122" class="st0" d="M41.9,124.5V109l13.4,7.7L41.9,124.5"/>
	<path id="Caminho_123" class="st0" d="M42,86.2V70.8l13.3,7.7L42,86.2"/>
	<path id="Caminho_124" class="st0" d="M117.3,78.5l-13.2,7.7V70.8L117.3,78.5"/>
	<path id="Caminho_125" class="st0" d="M73.1,86.1V70.8l13.3,7.6L73.1,86.1"/>
	<path id="Caminho_126" class="st0" d="M73.1,105.3V89.9l13.3,7.7L73.1,105.3"/>
	<path id="Caminho_127" class="st0" d="M73.2,67V51.7l13.2,7.6L73.2,67"/>
	<path id="Caminho_128" class="st0" d="M57.6,97.6c4.6-2.7,8.8-5.1,13.3-7.6v15.3C66.5,102.7,62.3,100.3,57.6,97.6"/>
	<path id="Caminho_129" class="st0" d="M23.9,97.6l-13.2,7.6V90C15.2,92.6,19.4,95,23.9,97.6"/>
	<path id="Caminho_130" class="st0" d="M23.8,114.8l-13.2-7.6l13.2-7.6V114.8z"/>
	<path id="Caminho_131" class="st0" d="M70.9,70.9v15.3c-4.5-2.6-8.7-5-13.3-7.7L70.9,70.9"/>
	<path id="Caminho_132" class="st0" d="M23.9,59.4c-4.6,2.7-8.8,5.1-13.2,7.7V51.8L23.9,59.4"/>
	<path id="Caminho_133" class="st0" d="M10.7,86.2V70.9l13.3,7.6L10.7,86.2"/>
	<path id="Caminho_134" class="st0" d="M38.8,53v11.9l-10.3-6L38.8,53z M39.8,51.2c-4.6,2.7-8.8,5.1-13.3,7.7l13.3,7.7V51.2z"/>
	<path id="Caminho_135" class="st0" d="M38.8,33.9v11.9l-2.6-1.5l-7.7-4.4L38.6,34L38.8,33.9z M39.8,32.1l-13.3,7.7l13.3,7.7V32.1z"
		/>
	<path id="Caminho_136" class="st0" d="M27.3,24.4l6.1,3.5l4.2,2.4l-10.3,6V24.4z M26.3,22.6V38l13.3-7.7L26.3,22.6"/>
	<path id="Caminho_137" class="st0" d="M38.8,14.8v11.9l-5.4-3.1l-4.9-2.8l2.3-1.3L38.8,14.8z M39.8,13l-13.3,7.7l13.3,7.7V13z"/>
	<path id="Caminho_138" class="st0" d="M27.3,43.5l10,5.8l0.3,0.2l-4.1,2.4l-6.2,3.6V43.5z M26.3,41.7v15.4l13.3-7.7
		C35,46.7,30.8,44.3,26.3,41.7"/>
	<path id="Caminho_139" class="st0" d="M43,14.8l5.5,3.2l4.7,2.7L43,26.6V14.8z M42,13v15.3l13.3-7.7L42,13"/>
	<path id="Caminho_140" class="st0" d="M43,33.9l10.3,5.9L43,45.8V33.9z M42,32.2v15.3l13.3-7.7L42,32.2"/>
	<path id="Caminho_141" class="st0" d="M23,5.2v11.8l-4.7-2.7l-5.5-3.2L23,5.2z M24,3.5l-13.2,7.7L24,18.8V3.5z"/>
	<path id="Caminho_142" class="st0" d="M23,24.4v11.8l-10.2-5.9l7-4.1L23,24.4z M24,22.6l-13.2,7.7L24,37.9V22.6z"/>
	<path id="Caminho_143" class="st0" d="M11.8,34l10.2,5.9l-10.2,5.9V34z M10.8,32.2v15.2l13.2-7.6L10.8,32.2"/>
	<path id="Caminho_144" class="st0" d="M22.8,43.5v11.7l-0.7-0.4l-9.5-5.5l7.9-4.6L22.8,43.5z M23.8,41.8c-4.5,2.6-8.6,5-13.2,7.6
		L23.8,57L23.8,41.8z"/>
	<path id="Caminho_145" class="st0" d="M11.7,14.8l7.5,4.3l2.8,1.6l-10.2,5.9V14.8z M10.7,13.1v15.3l13.3-7.7L10.7,13.1"/>
	<path id="Caminho_146" class="st0" d="M85.4,5.2v11.8l-5.3-3l-5-2.9L85.4,5.2z M86.4,3.5l-13.2,7.7l13.2,7.6V3.5z"/>
	<path id="Caminho_147" class="st0" d="M85.4,24.4v11.8l-10.2-5.9l8.6-4.9L85.4,24.4z M86.4,22.6l-13.2,7.7l13.2,7.7V22.6z"/>
	<path id="Caminho_148" class="st0" d="M74.2,34l10.2,5.9l-10.2,5.9V34z M73.2,32.2v15.2l13.2-7.6L73.2,32.2"/>
	<path id="Caminho_149" class="st0" d="M85.2,43.5v11.7l-3.2-1.8l-7-4l7.5-4.3L85.2,43.5z M86.3,41.8c-4.5,2.6-8.6,5-13.2,7.6
		L86.3,57L86.3,41.8z"/>
	<path id="Caminho_150" class="st0" d="M74.1,14.8l7.7,4.4l2.6,1.5L81,22.6l-6.9,4V14.8z M73.1,13.1v15.3l13.3-7.7L73.1,13.1"/>
	<path id="Caminho_151" class="st0" d="M89.4,5.2l7.6,4.4l2.6,1.5L98.1,12l-8.8,5.1V5.2z M88.4,3.5v15.3l13.2-7.6L88.4,3.5"/>
	<path id="Caminho_152" class="st0" d="M89.4,24.4l1.7,1l8.6,4.9l-10.2,5.9L89.4,24.4z M88.4,22.6v15.3l13.2-7.7L88.4,22.6"/>
	<path id="Caminho_153" class="st0" d="M100.7,14.8v11.8l-10.2-5.9l3.8-2.2L100.7,14.8z M101.7,13.1l-13.3,7.6l13.3,7.7L101.7,13.1z
		"/>
	<path id="Caminho_154" class="st0" d="M58.5,5.2l3.7,2.2l6.5,3.8l-10.2,5.9V5.2z M57.5,3.5v15.3c4.5-2.6,8.7-5,13.2-7.6L57.5,3.5"
		/>
	<path id="Caminho_155" class="st0" d="M58.5,24.4l1.7,1l8.6,4.9l-8,4.6l-2.2,1.3L58.5,24.4z M57.5,22.6v15.3l13.2-7.7L57.5,22.6"/>
	<path id="Caminho_156" class="st0" d="M69.7,34v11.8l-10.2-5.9L69.7,34z M70.7,32.2l-13.2,7.6l13.2,7.6L70.7,32.2z"/>
	<path id="Caminho_157" class="st0" d="M58.7,43.5l4.2,2.4l6,3.5l-10.1,5.9L58.7,43.5z M57.7,41.8V57c4.4-2.5,8.6-4.9,13.2-7.6
		C66.3,46.8,62.1,44.4,57.7,41.8"/>
	<path id="Caminho_158" class="st0" d="M69.8,14.8v11.8l-10.2-5.9l2.1-1.2L69.8,14.8z M70.8,13.1l-13.3,7.6l13.3,7.7V13.1z"/>
	<path id="Caminho_159" class="st0" d="M70.9,67.1l-13.3-7.7l13.3-7.6V67.1z"/>
</g>
</svg>
