<?xml version="1.0" encoding="UTF-8"?>
<svg xmlns="http://www.w3.org/2000/svg" xmlns:xlink="http://www.w3.org/1999/xlink" version="1.1" viewBox="0 0 751 490.1">
  <defs>
    <style>
      .cls-1 {
        fill: none;
      }

      .cls-2 {
        font-family: ToppanBunkyuMidashiGothicStdN-ExtraBold-83pv-RKSJ-H, 'Toppan Bunkyu Midashi Gothic';
        font-size: 40px;
        font-weight: 700;
      }

      .cls-2, .cls-3 {
        fill: #745399;
      }

      .cls-4 {
        clip-path: url(#clippath);
      }
    </style>
    <clipPath id="clippath">
      <rect class="cls-1" width="751" height="490.1"/>
    </clipPath>
  </defs>
  <!-- Generator: Adobe Illustrator 28.7.4, SVG Export Plug-In . SVG Version: 1.2.0 Build 166)  -->
  <g>
    <g id="Grupo_8">
      <g class="cls-4">
        <g id="Grupo_7">
          <path id="Caminho_107" class="cls-3" d="M118.1,427.6v62.5l-54.1-31.2,54.1-31.3"/>
          <path id="Caminho_108" class="cls-3" d="M369.6,427.3v62.7l-54.2-31.3c18.6-10.8,35.7-20.7,54.2-31.4"/>
          <path id="Caminho_109" class="cls-3" d="M369.5,412.4l-54.1-31.2,54.1-31.2v62.4Z"/>
          <path id="Caminho_110" class="cls-3" d="M118,412.7l-53.9-31.2,53.9-31.2v62.4Z"/>
          <path id="Caminho_111" class="cls-3" d="M314.7,451.2v-62.4l54.1,31.1-54.1,31.3"/>
          <path id="Caminho_112" class="cls-3" d="M63.5,373.9v-62.3l53.9,31-53.9,31.3"/>
          <path id="Caminho_113" class="cls-3" d="M64.1,304c18.6-10.8,35.7-20.7,53.9-31.2v62.2l-53.9-31"/>
          <path id="Caminho_114" class="cls-3" d="M314.8,311.3l54,31.2-54,31.1v-62.3Z"/>
          <path id="Caminho_115" class="cls-3" d="M369.6,272.5v62.5l-54.1-31.3,54.1-31.2"/>
          <path id="Caminho_116" class="cls-3" d="M117.5,420.2l-54,31.2v-62.4l54,31.2"/>
          <path id="Caminho_117" class="cls-3" d="M243.6,342.6l-54,31.2v-62.2l54,31"/>
          <path id="Caminho_118" class="cls-3" d="M54.1,296.2L.5,265.2l53.6-31.1v62.1Z"/>
          <path id="Caminho_119" class="cls-3" d="M54.1,373.6c-18-10.4-35-20.2-53.7-31l53.7-31v62Z"/>
          <path id="Caminho_120" class="cls-3" d="M189.7,296.3v-62.2l53.9,31.1-53.9,31.1"/>
          <path id="Caminho_121" class="cls-3" d="M378.1,427.5l53.9,31.1-53.9,31.2v-62.3Z"/>
          <path id="Caminho_122" class="cls-3" d="M126.6,490v-62.4l54.1,31.1-54.1,31.3"/>
          <path id="Caminho_123" class="cls-3" d="M126.7,334.9v-62.1l53.8,31-53.8,31.1"/>
          <path id="Caminho_124" class="cls-3" d="M431.9,303.7l-53.6,31v-62l53.6,31"/>
          <path id="Caminho_125" class="cls-3" d="M253,334.7v-62l53.7,31-53.7,31"/>
          <path id="Caminho_126" class="cls-3" d="M253,412.2v-62.1l53.7,31-53.7,31.1"/>
          <path id="Caminho_127" class="cls-3" d="M253.1,257.2v-61.8l53.5,30.8-53.5,31"/>
          <path id="Caminho_128" class="cls-3" d="M190.2,381.3c18.7-10.8,35.7-20.5,53.7-30.9v62c-17.9-10.4-35-20.3-53.7-31.1"/>
          <path id="Caminho_129" class="cls-3" d="M53.7,381.3L.4,412.3v-61.7c17.8,10.2,34.8,20,53.3,30.7"/>
          <path id="Caminho_130" class="cls-3" d="M53.4,450.9L0,420.1l53.3-30.8v61.6h.1Z"/>
          <path id="Caminho_131" class="cls-3" d="M244.1,272.8v62.2c-18.1-10.4-35.1-20.3-53.8-31.1l53.8-31.1"/>
          <path id="Caminho_132" class="cls-3" d="M53.7,226.4c-18.6,10.8-35.6,20.6-53.6,31v-61.9l53.6,30.9"/>
          <path id="Caminho_133" class="cls-3" d="M0,335v-62.1l53.7,30.9L0,335"/>
          <path id="Caminho_134" class="cls-3" d="M114,200.5v48.4l-41.9-24.1,41.9-24.3ZM118.1,193.4c-18.6,10.8-35.6,20.6-54.1,31.3l54.1,31.2v-62.5Z"/>
          <path id="Caminho_135" class="cls-3" d="M113.9,123.1v48.3l-10.7-6.2-31-17.9,40.9-23.7.8-.5ZM118,116l-53.9,31.2,53.9,31.2v-62.4Z"/>
          <path id="Caminho_136" class="cls-3" d="M67.5,84.5l24.6,14.2,17,9.8-41.7,24.2v-48.2h.1ZM63.5,77.4v62.3l53.9-31.3-53.9-31"/>
          <path id="Caminho_137" class="cls-3" d="M113.9,45.7v48.1l-21.7-12.5-19.9-11.5,9.3-5.4,32.3-18.7ZM118,38.6l-53.9,31.2,53.9,31v-62.2Z"/>
          <path id="Caminho_138" class="cls-3" d="M67.5,161.9l40.5,23.3,1.3.7-16.5,9.5-25.3,14.6v-48.1ZM63.4,154.8v62.3l54-31.2c-18.8-10.8-35.9-20.7-54-31.1"/>
          <path id="Caminho_139" class="cls-3" d="M130.8,45.6l22.4,12.9,19.1,11-41.6,24v-47.9h0ZM126.7,38.5v62.1l53.8-31.1-53.8-31"/>
          <path id="Caminho_140" class="cls-3" d="M130.8,123.2l41.6,24-41.6,24v-48h0ZM126.7,116.2v62.1l53.8-31.1-53.8-31"/>
          <path id="Caminho_141" class="cls-3" d="M50,7.1v47.9l-19-11-22.3-12.9L50,7.1ZM54.1,0L.5,31.1l53.6,31V0Z"/>
          <path id="Caminho_142" class="cls-3" d="M50,84.5v47.9l-41.4-23.9,28.5-16.5,12.9-7.5ZM54.1,77.5L.4,108.5l53.7,31v-62Z"/>
          <path id="Caminho_143" class="cls-3" d="M4.4,123.4l41.1,23.7-41.1,23.9v-47.6ZM.4,116.4v61.7l53.3-31L.4,116.4"/>
          <path id="Caminho_144" class="cls-3" d="M49.3,162.2v47.5l-2.7-1.6-38.4-22.2,31.9-18.5,9.2-5.2ZM53.4,155.1c-18.1,10.5-35,20.2-53.3,30.8l53.3,30.8v-61.6Z"/>
          <path id="Caminho_145" class="cls-3" d="M4.1,45.8l30.3,17.4,11.2,6.5L4.1,93.8v-48ZM0,38.8v62.1l53.7-31.1L0,38.8"/>
          <path id="Caminho_146" class="cls-3" d="M302.8,7.1v47.9l-21.3-12.3-20.1-11.6,41.4-24ZM306.9,0l-53.6,31.1,53.6,31V0Z"/>
          <path id="Caminho_147" class="cls-3" d="M302.8,84.5v47.9l-41.4-23.9,34.7-20,6.7-4ZM306.9,77.5l-53.7,31,53.7,31v-62Z"/>
          <path id="Caminho_148" class="cls-3" d="M257.2,123.4l41.1,23.7-41.1,23.9v-47.6ZM253.2,116.4v61.7l53.3-31-53.3-30.7"/>
          <path id="Caminho_149" class="cls-3" d="M302.1,162.2v47.5l-12.8-7.4-28.3-16.4,30.2-17.5,10.9-6.2ZM306.1,155.1c-18.1,10.5-35,20.2-53.3,30.8l53.3,30.8v-61.6Z"/>
          <path id="Caminho_150" class="cls-3" d="M256.9,45.8l31,17.9,10.5,6-13.4,7.7-28.1,16.3v-47.9ZM252.8,38.8v62.1l53.7-31.1-53.7-31"/>
          <path id="Caminho_151" class="cls-3" d="M318.8,7.1l30.7,17.8,10.7,6.2-5.9,3.4-35.5,20.5V7.1ZM314.7,0v62l53.6-31L314.7,0"/>
          <path id="Caminho_152" class="cls-3" d="M318.8,84.5l6.8,3.9,34.7,20-41.4,23.9v-47.8ZM314.7,77.5v62l53.7-31-53.7-31"/>
          <path id="Caminho_153" class="cls-3" d="M364.7,45.8v47.9l-41.5-24.1,15.6-9,25.9-14.8ZM368.8,38.8l-53.7,30.9,53.7,31.1v-62Z"/>
          <path id="Caminho_154" class="cls-3" d="M193.6,7.1l15.1,8.8,26.3,15.2-41.4,23.9V7.1ZM189.5,0v62c18.1-10.5,35.1-20.3,53.6-31L189.5,0"/>
          <path id="Caminho_155" class="cls-3" d="M193.6,84.5l6.8,3.9,34.7,20-32.4,18.7-9.1,5.2v-47.8ZM189.6,77.5v62l53.7-31-53.7-31"/>
          <path id="Caminho_156" class="cls-3" d="M239.2,123.4v47.6l-41.1-23.9,41.1-23.7ZM243.3,116.4l-53.3,30.8,53.3,31v-61.8Z"/>
          <path id="Caminho_157" class="cls-3" d="M194.4,162.2l16.9,9.8,24.2,14-41.1,23.7v-47.5ZM190.3,155.1v61.6c17.8-10.3,34.7-20,53.3-30.8-18.3-10.6-35.2-20.3-53.3-30.8"/>
          <path id="Caminho_158" class="cls-3" d="M239.6,45.8v47.9l-41.5-24.1,8.4-4.8,33.1-19ZM243.7,38.8l-53.7,30.9,53.7,31.1v-62Z"/>
          <path id="Caminho_159" class="cls-3" d="M244,257.5l-53.8-31,53.8-31v62Z"/>
          <path id="Caminho_160" class="cls-3" d="M458.6,186.2h-7.6s-1-3-1.8-5.6c-2.4-7.5-4.7-15.1-7.6-22.5v28.2h-6.6v-42c2.7,0,6.4,0,9.1.1,0,0,.7,1.5,1,2.4,2.2,6.8,4.3,13.6,7,20.3v-22.7h6.6v41.8Z"/>
          <path id="Caminho_161" class="cls-3" d="M661.7,159.7c-1.6,8.9-3.9,17.7-5.5,26.5h-7s-4.2-19.2-6-26v26.2h-6.6v-42.1c3-.1,6-.1,9,.1.4,0,1.4.1,1.4.1,0,0,.6,1.9.7,2.5,1.7,8.4,3.3,16.9,5.4,25.3,1.1-6,2.2-12.1,3.2-18.1.4-2.5,2-10,2-10h2.3c2.6.1,5.2,0,8.1,0v42.1h-6.9v-26.6c-.3,0,.2,0-.1,0"/>
          <path id="Caminho_162" class="cls-3" d="M723.8,186.2h-7.6s-1-3-1.8-5.6c-2.4-7.5-4.7-15.1-7.6-22.5v28.2h-6.6v-42c2.7,0,6.4,0,9.1.1,0,0,.7,1.5,1,2.4,2.2,6.8,4.3,13.6,7,20.3v-22.7h6.6v41.8Z"/>
          <path id="Caminho_163" class="cls-3" d="M630.7,186.2h-7.6s-1-3-1.8-5.6c-2.4-7.5-4.7-15.1-7.6-22.5v28.2h-6.7v-42c2.7,0,6.4,0,9.1.1,0,0,.7,1.5,1,2.4,2.2,6.8,4.3,13.6,7,20.3v-22.7h6.6v41.8Z"/>
          <path id="Caminho_164" class="cls-3" d="M533.1,165.9c3.6,2,4.6,5,4.6,8.5v12c.2-.1,0,0,0,0q-7.8.9-7.8-6.9v-4c0-5.4-1.6-6.6-7.6-5.7v16.5h-7.6v-41.8c5.3,0,10.5-.3,15.6.1,4.5.4,7.1,3.5,7.3,8,.2,4.8,1,10-4.5,13.3M522.6,163.2c3.1,0,6-.6,6.5-2,.9-3,.9-6.2,0-9.2-.4-1.3-2.9-1-6.5-1v12.2Z"/>
          <path id="Caminho_165" class="cls-3" d="M571.6,179c-.8,2.7-1.6,7.3-1.6,7.3,0,0-4.8.1-7.2.1,1.7-9.1,3.3-18,4.9-26.8.8-4.2,1.7-8.4,2.3-12.7,0-.9.3-1.8.6-2.6,0,0,1.7-.1,2.6,0,2.7.1,5.5,0,8.6,0,2.6,14,5.2,27.9,7.7,41.8-4.1,0-7.4.1-7.4.1,0,0-.8-3.2-1.8-7.2h-8.7ZM572.4,172.8h7.2c-1.1-6.5-2.6-12.7-3.7-19h0c-1.1,6.2-2.4,12.5-3.5,19"/>
          <path id="Caminho_166" class="cls-3" d="M408.9,144.4h20.6v5.8h-12.8v11.8h10.1v6h-10.2v12.3h12.9v6.1h-20.7v-42h.1Z"/>
          <path id="Caminho_167" class="cls-3" d="M496.9,168v12.4h13v5.9h-20.6v-41.8h20.5v5.8h-12.9v11.7h10.1v6h-10.1Z"/>
          <path id="Caminho_168" class="cls-3" d="M682,180.3h12.9v6h-20.5v-41.8h20.6v5.8h-13v11.9h10.1v6.1h-10.1v12Z"/>
          <path id="Caminho_169" class="cls-3" d="M548.8,150.2h-8v-5.7h23.4v5.7h-7.8v36.2h-7.6v-36.2Z"/>
          <path id="Caminho_170" class="cls-3" d="M751,144.5v5.8h-7.8v36h-7.7v-35.9h-7.9v-5.9h23.4Z"/>
          <path id="Caminho_171" class="cls-3" d="M470.1,150.2h-8v-5.7h23.4v5.6h-7.8v36.2h-7.6v-36.1Z"/>
          <rect id="Ret창ngulo_53" class="cls-3" x="593.6" y="144.5" width="7.3" height="41.9"/>
          <path id="Caminho_172" class="cls-3" d="M618.7,248.3h-7.6s-1-3-1.8-5.6c-2.4-7.5-4.7-15.1-7.6-22.5v28.2h-6.7v-42c2.7,0,6.4,0,9.1.1,0,0,.7,1.5,1,2.4,2.2,6.8,4.3,13.6,7,20.3v-22.7h6.6v41.8Z"/>
          <path id="Caminho_173" class="cls-3" d="M489.4,221.8c-1.6,8.9-3.9,17.7-5.5,26.5h-7s-4.2-19.2-6-26v26.2h-6.6v-42.1c3-.1,6-.1,9,.1.4,0,1.4.1,1.4.1,0,0,.6,1.9.7,2.5,1.7,8.4,3.3,16.9,5.4,25.3,1.1-6,2.2-12.1,3.2-18.1.4-2.5,2-10,2-10h2.3c2.6.1,5.2,0,8.1,0v42.1h-6.9v-26.6c-.4-.1.2-.1-.1,0"/>
          <path id="Caminho_174" class="cls-3" d="M435.7,227.4c0-3.9-.1-7.7,0-11.6.2-6.5,4.4-10.1,11.8-10,7.2,0,11.3,3.6,11.4,10.1.1,7.7.1,15.5,0,23.2-.1,6.5-4.2,10-11.4,10s-11.6-3.4-11.8-10c-.1-4,0-7.8,0-11.7M451.2,227.6v-11.2c0-2.7-1.1-4.5-4.1-4.4-2.8.1-3.7,2-3.7,4.5v22.1c0,2.5.8,4.3,3.7,4.4,3.1.1,4-1.8,4-4.5.1-3.7.1-7.3.1-10.9"/>
          <path id="Caminho_175" class="cls-3" d="M528.4,206.5h7.3v31.3c0,3.7,1.2,5.1,4.1,5.1,3.3-.1,3.9-2.2,3.9-5v-31.3h7.3v14.2c0,6.1,0,12.1,0,18.2,0,6.2-3.8,9.8-10.3,10-7.9.3-12.4-2.7-12.6-9.4-.3-10.7,0-21.4,0-32.1,0-.3.2-.7.4-1"/>
          <path id="Caminho_176" class="cls-3" d="M639.1,231.2l-3.3-.4v-5.6h10.3c0,5.6.5,11.2-.2,16.7-.3,2.2-2.8,4.8-4.9,6-3.7,2-7.9,1.7-11.9.2-3.3-1.2-5.5-4.4-5.4-8,0-8.4-.2-16.8,0-25.2,0-4.8,2.9-7.7,7.6-8.7,3.9-.8,7.8-.8,11.2,1.5,4.6,3.1,4.2,7.8,3.8,12.6h-7.2c0-1.7,0-3.3,0-4.9,0-2.3-1.5-3.4-3.6-3.5-2.3-.1-4.1.9-4.2,3.3,0,8.2,0,16.3,0,24.5,0,2.4,1.9,3.3,4.2,3.2,2.2-.1,3.5-1.3,3.6-3.5,0-2.7,0-5.3,0-8.2"/>
          <path id="Caminho_177" class="cls-3" d="M431.6,220.3h-7.1v-4.7c.2-1.9-1.2-3.6-3.1-3.8h-.6c-2.3-.1-4.1,1-4.1,3.3-.1,8.2-.1,16.3,0,24.5,0,2.4,1.9,3.3,4.2,3.2,2.2-.1,3.5-1.3,3.5-3.6.1-2,0-3.9,0-6.2h7.2c.1,2.6.1,5.2-.1,7.9-.2,3.1-2.2,5.7-5,6.9-4,1.8-8.5,1.7-12.5,0-3.2-1.3-5.2-4.5-5.1-7.9-.1-8.3-.2-16.6,0-24.8.1-4.9,2.9-8.3,7.7-8.8,3.6-.4,7.2.1,10.5,1.3,4.2,1.4,5.1,5.3,4.5,12.7"/>
          <path id="Caminho_178" class="cls-3" d="M509.3,232.8v15.6h-7.3v-41.9c5,0,10-.4,14.8.1s7.5,4,7.7,8.9c0,2.3,0,4.6,0,6.9,0,6.2-3.2,9.5-9.5,10.1-1.6.2-3.4.2-5.7.3M509.6,211.7v15.4c3,0,6.3.7,7.7-1.9,1.6-3.4,2.2-8.2.4-11.6-.9-1.9-4.4-1.9-8.1-1.9"/>
          <path id="Caminho_179" class="cls-3" d="M562,248.4v-35.9h-7.9v-6h23.3v5.7h-7.8v36.2h-7.6Z"/>
          <rect id="Ret창ngulo_54" class="cls-3" x="581.2" y="206.5" width="7.4" height="41.9"/>
          <path id="Caminho_180" class="cls-3" d="M715.8,121.6h-4.7v-42c.2-.2,6.8,0,6.8,0,0,0,1.1,2.7,2,5,2.7,7.2,8.4,22.4,9.4,24v-29h4.6v41.6c-3.4,0-5.5,0-5.5,0,0,0-11.3-30-12.6-32.3v32.8Z"/>
          <path id="Caminho_181" class="cls-3" d="M597.5,121.6h-4.7v-42c.2-.2,6.8,0,6.8,0,0,0,1.1,2.7,2,5,2.7,7.2,8.4,22.4,9.4,24v-29h4.6v41.6c-3.4,0-5.5,0-5.5,0,0,0-11.3-30-12.6-32.3v32.8Z"/>
          <path id="Caminho_182" class="cls-3" d="M467.8,121.6h-4.7v-42c.2-.2,6.8,0,6.8,0,0,0,1.1,2.7,2,5,2.7,7.2,8.4,22.4,9.4,24v-29h4.6v41.6c-3.4,0-5.5,0-5.5,0,0,0-11.3-30-12.6-32.3v32.8h0Z"/>
          <path id="Caminho_183" class="cls-3" d="M557.1,101.2c4.6,2,5.4,5.8,5.2,10.1,0,3.3,0,6.6,0,10-4.9.4-5.4.6-5.4-4.4v-6.3c0-5.1-1.6-6.7-6.6-7-1.3,0-2.6,0-4.2,0v17.9h-5.3v-42.3c5.4.3,10.7.4,16,1.1,1.5.2,3.2,1.6,4.1,3,3.3,4.8,1.3,14.5-3.8,17.9M546,83.8v15c5.1.9,8.3.5,9.7-2,1.8-3.1,2-6.9.5-10.2-1.4-3.4-6.7-2.6-10.2-2.8"/>
          <path id="Caminho_184" class="cls-3" d="M435.4,100.6c0-4-.1-8,0-11.9.2-6.1,4.1-9.6,10.6-9.8,6.8-.2,11.3,3,11.6,9.1.4,8.4.3,16.8,0,25.2-.2,6.1-4.8,9.3-11.5,9.1-6.6-.2-10.4-3.6-10.6-9.7-.2-4.1-.1-8-.1-12M452.2,100.6h0c0-3.9.1-7.7,0-11.6s-2-5.7-5.7-5.7-5.6,1.9-5.6,5.8c-.1,7.6-.1,15.2,0,22.8,0,3.9,2,5.8,5.6,5.9,3.8,0,5.7-1.9,5.8-6,0-3.7,0-7.5,0-11.2"/>
          <path id="Caminho_185" class="cls-3" d="M705.9,100.6c0,3.9,0,7.7,0,11.6-.2,6.3-4,9.8-10.7,10.1s-11.3-3-11.6-9.1c-.4-8.4-.4-16.8,0-25.2.3-6.2,5-9.5,11.9-9.1,6.5.4,10.2,3.9,10.3,10.1.2,3.8,0,7.7,0,11.6M700.4,100.5c0-3.7,0-7.5,0-11.2,0-4-2-5.9-5.6-5.9-3.7,0-5.7,1.7-5.8,5.6-.2,7.7-.2,15.4,0,23.1,0,4,2.1,5.8,5.7,5.8s5.6-1.9,5.7-6.1c0-3.8,0-7.6,0-11.3"/>
          <path id="Caminho_186" class="cls-3" d="M567.9,79.6h19.8v4.1h-14.3v14.3h11.5v4.4h-11.5v14.9h14.2v4.2h-19.8v-41.9h0Z"/>
          <path id="Caminho_187" class="cls-3" d="M515.4,79.6h19.9v4.1h-14.3v14.2h11.5c0,1.5.2,2.8.2,4.4h-11.7v15h14.2v4.2h-19.9v-41.9h.1Z"/>
          <path id="Caminho_188" class="cls-3" d="M425.8,106.4h5.1c.1,2.6.1,5.2-.1,7.7-.7,5.3-4.9,8.2-11.1,8.1s-10.3-3.2-10.5-8.7c-.3-8.6-.3-17.2,0-25.8.2-5.7,4.6-8.9,11.1-8.8s10.4,3.5,10.7,9.3c.1,1.6,0,3.3,0,5.1h-5c-.1-1.8-.1-3.4-.3-5-.4-3.3-2.2-4.9-5.5-4.9s-5.4,1.5-5.7,4.7c-.3,3.4-.1,6.8-.2,10.3,0,4.5-.1,9.1,0,13.6.1,3.9,2.1,5.9,5.6,5.9,3.6,0,5.5-1.8,5.8-5.7.2-1.8.1-3.6.1-5.8"/>
          <path id="Caminho_189" class="cls-3" d="M642.9,93.3h-4.9c0-1.7,0-3.2-.3-4.7-.3-3.6-2.1-5.2-5.5-5.2s-5.7,1.7-5.8,5.3c-.2,5.3,0,10.6,0,15.9s0,5.1,0,7.6c.2,3.9,2.2,5.8,5.8,5.7,3.5,0,5.3-1.8,5.5-5.6,0-1.8,0-3.7,0-5.8h5c0,2.8.4,5.5,0,8.2-.8,5.2-5.3,7.9-11.5,7.6-6-.3-9.9-3.4-10.1-8.8-.3-8.6-.3-17.2,0-25.8.2-5.7,4.7-8.9,11.1-8.8,6.3,0,10.2,3.4,10.7,9,.3,1.7.2,3.4.2,5.4"/>
          <path id="Caminho_190" class="cls-3" d="M648.1,121.6v-42h19.7v4h-14.2v14.4h11.5v4.3h-11.4v15h14.3v4.2h-19.9Z"/>
          <path id="Caminho_191" class="cls-3" d="M491.9,79.5h18.9c.1,1.3.1,2.4.2,4h-13.7v15.5h10.8v4.2h-11v18.3h-5.2v-42Z"/>
          <path id="Caminho_192" class="cls-3" d="M701.4,56.2c-3.3.2-5.5,0-5.5,0,0,0-.5-2-1-4.1-.3-1.3-.6-2.6-1-4.2h-12.1c-.4,1.6-.7,3.2-1.1,4.8-.3,1.1-.8,3.4-.8,3.4,0,0-1.9,0-5.1,0,1.4-6.2,2.7-12.4,4.1-18.6,1.5-6.7,2.7-13.4,4.4-20,.3-1.3.8-3.4.8-3.4h8c3.2,14.1,6.2,28,9.3,42M693.2,43.8c-1.8-7.8-3.7-15.6-5.3-23-.2,0,.2,0,0,0-1.6,7.5-3.6,15.3-5.3,23h10.6Z"/>
          <path id="Caminho_193" class="cls-3" d="M652.6,56.4h-4.7V14.4c.2-.2,6.8,0,6.8,0,0,0,1.1,2.7,2,5,2.7,7.2,8.4,22.4,9.4,24V14.4h4.6v41.6c-3.4,0-5.5,0-5.5,0,0,0-11.3-30-12.6-32.3v32.8Z"/>
          <path id="Caminho_194" class="cls-3" d="M531,56.4h-4.7V14.4c.2-.2,6.8,0,6.8,0,0,0,1.1,2.7,2,5,2.7,7.2,8.4,22.4,9.4,24V14.4h4.6v41.6c-3.4,0-5.5,0-5.5,0,0,0-11.3-30-12.6-32.3v32.8Z"/>
          <path id="Caminho_195" class="cls-3" d="M424.7,56.4h-4.7V14.4c.2-.2,6.8,0,6.8,0,0,0,1.1,2.7,2,5,2.7,7.2,8.4,22.4,9.4,24V14.4h4.6v41.6c-3.4,0-5.5,0-5.5,0,0,0-11.3-30-12.6-32.3v32.8h0Z"/>
          <path id="Caminho_196" class="cls-3" d="M498.8,14.2c4.5,0,8.7-.2,12.9,0,5.9.3,8.7,3.5,8.8,9.4,0,4.7.6,9.5-5.5,12.2,5.8,2.3,5.7,7,5.6,11.7,0,2.8,0,5.7,0,8.6-4.9,1-5.4.5-5.4-4.9v-5.3c0-5.8-1.6-7.4-7.5-7.6h-3.6v18h-5.3V14.2ZM504.1,18.5v13c0,.7.1,1.5.2,2.5,3.5-.2,8,1.3,9.6-2.4,1.3-3.4,1.4-7.2,0-10.7-1.5-3.9-6-2.1-9.9-2.4"/>
          <path id="Caminho_197" class="cls-3" d="M642.5,35.4c0,3.9,0,7.7,0,11.6-.2,6.2-3.9,9.7-10.4,10-6.7.4-11.5-2.8-11.8-8.9-.4-8.5-.4-17,0-25.5.3-6.2,5.1-9.4,12-9,6.5.4,10.1,3.9,10.3,10.2,0,3.9,0,7.7,0,11.6M637,35.4c0-3.7,0-7.5,0-11.2,0-4.1-1.9-6-5.4-6.1-3.8-.2-6,1.6-6.1,5.7-.2,7.7-.2,15.4,0,23.1,0,3.9,2.2,5.7,5.8,5.6,3.6,0,5.5-2,5.6-5.9.2-3.7.1-7.4.1-11.2"/>
          <path id="Caminho_198" class="cls-3" d="M581.4,56.2c-3.3.2-5.5,0-5.5,0,0,0-.5-2-1-4.1-.3-1.3-.6-2.6-1-4.2h-12.1c-.4,1.6-.7,3.2-1.1,4.8-.3,1.1-.8,3.4-.8,3.4,0,0-1.9,0-5.1,0,1.4-6.2,2.7-12.4,4.1-18.6,1.5-6.7,2.7-13.4,4.4-20,.3-1.3.8-3.4.8-3.4h8c3.1,14.1,6.2,28,9.3,42M573.2,43.8c-1.8-7.8-3.7-15.6-5.3-23-.2,0,.2,0,0,0-1.6,7.5-3.6,15.3-5.3,23h10.6Z"/>
          <path id="Caminho_199" class="cls-3" d="M473.8,14.3h19.7v4.3h-14.3v14.2h11.6c.1,1.6.1,2.8.2,4.4h-11.7v14.8h14.2v4.3h-19.6V14.3h-.1Z"/>
          <path id="Caminho_200" class="cls-3" d="M469.9,14.4v4.1h-8.9v37.9h-5.4V18.5h-8.9v-4.1h23.2Z"/>
          <path id="Caminho_201" class="cls-3" d="M591.5,18.5h-9v-4.1h23.1v4.1h-8.8v37.8h-5.3V18.5Z"/>
          <path id="Caminho_202" class="cls-3" d="M706,56.3V14.4h5.1v37.6h13.9v4.3h-19Z"/>
          <rect id="Ret창ngulo_55" class="cls-3" x="408.9" y="14.4" width="5.2" height="41.9"/>
          <rect id="Ret창ngulo_56" class="cls-3" x="609.9" y="14.3" width="5" height="41.9"/>
        </g>
      </g>
      <text class="cls-2" transform="translate(463 434)"><tspan x="0" y="0">27-30 AUG.</tspan><tspan x="0" y="48">TOKYO, </tspan></text>
    </g>
  </g>
</svg>