<?xml version="1.0" encoding="utf-8"?>
<!-- Generator: Adobe Illustrator 26.0.2, SVG Export Plug-In . SVG Version: 6.00 Build 0)  -->
<svg version="1.1" id="Grupo_8" xmlns="http://www.w3.org/2000/svg" xmlns:xlink="http://www.w3.org/1999/xlink" x="0px" y="0px"
	 viewBox="0 0 751 490.1" style="enable-background:new 0 0 751 490.1;" xml:space="preserve">
<style type="text/css">
	.st0{clip-path:url(#SVGID_00000049179606411713136170000012947406662579227532_);}
	.st1{fill:#745399;}
</style>
<g>
	<defs>
		<rect id="SVGID_1_" y="0" width="751" height="490.1"/>
	</defs>
	<clipPath id="SVGID_00000103948427031878928750000004298859746042938796_">
		<use xlink:href="#SVGID_1_"  style="overflow:visible;"/>
	</clipPath>
	<g id="Grupo_7" style="clip-path:url(#SVGID_00000103948427031878928750000004298859746042938796_);">
		<path id="Caminho_107" class="st1" d="M118.1,427.6v62.5L64,458.9L118.1,427.6"/>
		<path id="Caminho_108" class="st1" d="M369.6,427.3V490l-54.2-31.3C334,447.9,351.1,438,369.6,427.3"/>
		<path id="Caminho_109" class="st1" d="M369.5,412.4l-54.1-31.2l54.1-31.2V412.4z"/>
		<path id="Caminho_110" class="st1" d="M118,412.7l-53.9-31.2l53.9-31.2V412.7z"/>
		<path id="Caminho_111" class="st1" d="M314.7,451.2v-62.4l54.1,31.1L314.7,451.2"/>
		<path id="Caminho_112" class="st1" d="M63.5,373.9v-62.3l53.9,31L63.5,373.9"/>
		<path id="Caminho_113" class="st1" d="M64.1,304c18.6-10.8,35.7-20.7,53.9-31.2v62.2L64.1,304"/>
		<path id="Caminho_114" class="st1" d="M314.8,311.3l54,31.2l-54,31.1V311.3z"/>
		<path id="Caminho_115" class="st1" d="M369.6,272.5V335l-54.1-31.3L369.6,272.5"/>
		<path id="Caminho_116" class="st1" d="M117.5,420.2l-54,31.2V389L117.5,420.2"/>
		<path id="Caminho_117" class="st1" d="M243.6,342.6l-54,31.2v-62.2L243.6,342.6"/>
		<path id="Caminho_118" class="st1" d="M54.1,296.2l-53.6-31l53.6-31.1L54.1,296.2z"/>
		<path id="Caminho_119" class="st1" d="M54.1,373.6c-18-10.4-35-20.2-53.7-31l53.7-31V373.6z"/>
		<path id="Caminho_120" class="st1" d="M189.7,296.3v-62.2l53.9,31.1L189.7,296.3"/>
		<path id="Caminho_121" class="st1" d="M378.1,427.5l53.9,31.1l-53.9,31.2V427.5z"/>
		<path id="Caminho_122" class="st1" d="M126.6,490v-62.4l54.1,31.1L126.6,490"/>
		<path id="Caminho_123" class="st1" d="M126.7,334.9v-62.1l53.8,31L126.7,334.9"/>
		<path id="Caminho_124" class="st1" d="M431.9,303.7l-53.6,31v-62L431.9,303.7"/>
		<path id="Caminho_125" class="st1" d="M253,334.7v-62l53.7,31L253,334.7"/>
		<path id="Caminho_126" class="st1" d="M253,412.2v-62.1l53.7,31L253,412.2"/>
		<path id="Caminho_127" class="st1" d="M253.1,257.2v-61.8l53.5,30.8L253.1,257.2"/>
		<path id="Caminho_128" class="st1" d="M190.2,381.3c18.7-10.8,35.7-20.5,53.7-30.9v62C226,402,208.9,392.1,190.2,381.3"/>
		<path id="Caminho_129" class="st1" d="M53.7,381.3l-53.3,31v-61.7C18.2,360.8,35.2,370.6,53.7,381.3"/>
		<path id="Caminho_130" class="st1" d="M53.4,450.9L0,420.1l53.3-30.8V450.9z"/>
		<path id="Caminho_131" class="st1" d="M244.1,272.8V335c-18.1-10.4-35.1-20.3-53.8-31.1L244.1,272.8"/>
		<path id="Caminho_132" class="st1" d="M53.7,226.4c-18.6,10.8-35.6,20.6-53.6,31v-61.9L53.7,226.4"/>
		<path id="Caminho_133" class="st1" d="M0,335v-62.1l53.7,30.9L0,335"/>
		<path id="Caminho_134" class="st1" d="M114,200.5v48.4l-41.9-24.1L114,200.5z M118.1,193.4c-18.6,10.8-35.6,20.6-54.1,31.3
			l54.1,31.2V193.4z"/>
		<path id="Caminho_135" class="st1" d="M113.9,123.1v48.3l-10.7-6.2l-31-17.9l40.9-23.7L113.9,123.1z M118,116l-53.9,31.2
			l53.9,31.2V116z"/>
		<path id="Caminho_136" class="st1" d="M67.5,84.5l24.6,14.2l17,9.8l-41.7,24.2V84.5z M63.5,77.4v62.3l53.9-31.3L63.5,77.4"/>
		<path id="Caminho_137" class="st1" d="M113.9,45.7v48.1L92.2,81.3L72.3,69.8l9.3-5.4L113.9,45.7z M118,38.6L64.1,69.8l53.9,31
			V38.6z"/>
		<path id="Caminho_138" class="st1" d="M67.5,161.9l40.5,23.3l1.3,0.7l-16.5,9.5l-25.3,14.6V161.9z M63.4,154.8v62.3l54-31.2
			C98.6,175.1,81.5,165.2,63.4,154.8"/>
		<path id="Caminho_139" class="st1" d="M130.8,45.6l22.4,12.9l19.1,11l-41.6,24V45.6z M126.7,38.5v62.1l53.8-31.1L126.7,38.5"/>
		<path id="Caminho_140" class="st1" d="M130.8,123.2l41.6,24l-41.6,24V123.2z M126.7,116.2v62.1l53.8-31.1L126.7,116.2"/>
		<path id="Caminho_141" class="st1" d="M50,7.1V55L31,44L8.7,31.1L50,7.1z M54.1,0L0.5,31.1l53.6,31V0z"/>
		<path id="Caminho_142" class="st1" d="M50,84.5v47.9L8.6,108.5L37.1,92L50,84.5z M54.1,77.5l-53.7,31l53.7,31V77.5z"/>
		<path id="Caminho_143" class="st1" d="M4.4,123.4l41.1,23.7L4.4,171V123.4z M0.4,116.4v61.7l53.3-31L0.4,116.4"/>
		<path id="Caminho_144" class="st1" d="M49.3,162.2v47.5l-2.7-1.6L8.2,185.9l31.9-18.5L49.3,162.2z M53.4,155.1
			c-18.1,10.5-35,20.2-53.3,30.8l53.3,30.8L53.4,155.1z"/>
		<path id="Caminho_145" class="st1" d="M4.1,45.8l30.3,17.4l11.2,6.5L4.1,93.8V45.8z M0,38.8v62.1l53.7-31.1L0,38.8"/>
		<path id="Caminho_146" class="st1" d="M302.8,7.1V55l-21.3-12.3l-20.1-11.6L302.8,7.1z M306.9,0l-53.6,31.1l53.6,31V0z"/>
		<path id="Caminho_147" class="st1" d="M302.8,84.5v47.9l-41.4-23.9l34.7-20L302.8,84.5z M306.9,77.5l-53.7,31l53.7,31V77.5z"/>
		<path id="Caminho_148" class="st1" d="M257.2,123.4l41.1,23.7L257.2,171V123.4z M253.2,116.4v61.7l53.3-31L253.2,116.4"/>
		<path id="Caminho_149" class="st1" d="M302.1,162.2v47.5l-12.8-7.4L261,185.9l30.2-17.5L302.1,162.2z M306.1,155.1
			c-18.1,10.5-35,20.2-53.3,30.8l53.3,30.8L306.1,155.1z"/>
		<path id="Caminho_150" class="st1" d="M256.9,45.8l31,17.9l10.5,6L285,77.4l-28.1,16.3V45.8z M252.8,38.8v62.1l53.7-31.1
			L252.8,38.8"/>
		<path id="Caminho_151" class="st1" d="M318.8,7.1l30.7,17.8l10.7,6.2l-5.9,3.4L318.8,55V7.1z M314.7,0v62l53.6-31L314.7,0"/>
		<path id="Caminho_152" class="st1" d="M318.8,84.5l6.8,3.9l34.7,20l-41.4,23.9L318.8,84.5z M314.7,77.5v62l53.7-31L314.7,77.5"/>
		<path id="Caminho_153" class="st1" d="M364.7,45.8v47.9l-41.5-24.1l15.6-9L364.7,45.8z M368.8,38.8l-53.7,30.9l53.7,31.1
			L368.8,38.8z"/>
		<path id="Caminho_154" class="st1" d="M193.6,7.1l15.1,8.8L235,31.1L193.6,55V7.1z M189.5,0v62c18.1-10.5,35.1-20.3,53.6-31
			L189.5,0"/>
		<path id="Caminho_155" class="st1" d="M193.6,84.5l6.8,3.9l34.7,20l-32.4,18.7l-9.1,5.2L193.6,84.5z M189.6,77.5v62l53.7-31
			L189.6,77.5"/>
		<path id="Caminho_156" class="st1" d="M239.2,123.4V171l-41.1-23.9L239.2,123.4z M243.3,116.4l-53.3,30.8l53.3,31L243.3,116.4z"/>
		<path id="Caminho_157" class="st1" d="M194.4,162.2l16.9,9.8l24.2,14l-41.1,23.7L194.4,162.2z M190.3,155.1v61.6
			c17.8-10.3,34.7-20,53.3-30.8C225.3,175.3,208.4,165.6,190.3,155.1"/>
		<path id="Caminho_158" class="st1" d="M239.6,45.8v47.9l-41.5-24.1l8.4-4.8L239.6,45.8z M243.7,38.8l-53.7,30.9l53.7,31.1
			L243.7,38.8z"/>
		<path id="Caminho_159" class="st1" d="M244,257.5l-53.8-31l53.8-31V257.5z"/>
		<path id="Caminho_160" class="st1" d="M458.6,186.2c-4.2,0-7.6,0-7.6,0s-1-3-1.8-5.6c-2.4-7.5-4.7-15.1-7.6-22.5v28.2h-6.6v-42
			c2.7,0,6.4,0,9.1,0.1c0,0,0.7,1.5,1,2.4c2.2,6.8,4.3,13.6,7,20.3v-22.7h6.6L458.6,186.2z"/>
		<path id="Caminho_161" class="st1" d="M661.7,159.7c-1.6,8.9-3.9,17.7-5.5,26.5c-4,0-7,0-7,0s-4.2-19.2-6-26v26.2h-6.6v-42.1
			c3-0.1,6-0.1,9,0.1c0.4,0,1.4,0.1,1.4,0.1s0.6,1.9,0.7,2.5c1.7,8.4,3.3,16.9,5.4,25.3c1.1-6,2.2-12.1,3.2-18.1c0.4-2.5,2-10,2-10
			s1.4,0,2.3,0c2.6,0.1,5.2,0,8.1,0v42.1h-6.9V159.7C661.5,159.6,662,159.7,661.7,159.7"/>
		<path id="Caminho_162" class="st1" d="M723.8,186.2c-4.2,0-7.6,0-7.6,0s-1-3-1.8-5.6c-2.4-7.5-4.7-15.1-7.6-22.5v28.2h-6.6v-42
			c2.7,0,6.4,0,9.1,0.1c0,0,0.7,1.5,1,2.4c2.2,6.8,4.3,13.6,7,20.3v-22.7h6.6L723.8,186.2z"/>
		<path id="Caminho_163" class="st1" d="M630.7,186.2c-4.2,0-7.6,0-7.6,0s-1-3-1.8-5.6c-2.4-7.5-4.7-15.1-7.6-22.5v28.2H607v-42
			c2.7,0,6.4,0,9.1,0.1c0,0,0.7,1.5,1,2.4c2.2,6.8,4.3,13.6,7,20.3v-22.7h6.6L630.7,186.2z"/>
		<path id="Caminho_164" class="st1" d="M533.1,165.9c3.6,2,4.6,5,4.6,8.5c0,3.9,0,7.9,0,12c0.2-0.1,0.1,0,0,0
			c-7.8,0.9-7.8,0.9-7.8-6.9c0-1.3,0-2.6,0-4c-0.1-5.4-1.6-6.6-7.6-5.7v16.5h-7.6v-41.8c5.3,0,10.5-0.3,15.6,0.1
			c4.5,0.4,7.1,3.5,7.3,8C537.8,157.4,538.6,162.6,533.1,165.9 M522.6,163.2c3.1,0,6-0.6,6.5-2c0.9-3,0.9-6.2,0-9.2
			c-0.4-1.3-2.9-1-6.5-1L522.6,163.2z"/>
		<path id="Caminho_165" class="st1" d="M571.6,179c-0.8,2.7-1.6,7.3-1.6,7.3s-4.8,0.1-7.2,0.1c1.7-9.1,3.3-18,4.9-26.8
			c0.8-4.2,1.7-8.4,2.3-12.7c0.1-0.9,0.3-1.8,0.6-2.6c0,0,1.7-0.1,2.6,0c2.7,0.1,5.5,0,8.6,0c2.6,14,5.2,27.9,7.7,41.8
			c-4.1,0-7.4,0.1-7.4,0.1s-0.8-3.2-1.8-7.2L571.6,179z M572.4,172.8h7.2c-1.1-6.5-2.6-12.7-3.7-19l0,0
			C574.8,160,573.5,166.3,572.4,172.8"/>
		<path id="Caminho_166" class="st1" d="M408.9,144.4h20.6v5.8h-12.8V162h10.1v6h-10.2v12.3h12.9v6.1h-20.7V144.4z"/>
		<path id="Caminho_167" class="st1" d="M496.9,168v12.4h13v5.9h-20.6v-41.8h20.5v5.8h-12.9V162H507v6L496.9,168z"/>
		<path id="Caminho_168" class="st1" d="M682,180.3h12.9v6h-20.5v-41.8h20.6v5.8h-13v11.9h10.1v6.1H682V180.3z"/>
		<path id="Caminho_169" class="st1" d="M548.8,150.2h-8v-5.7h23.4v5.7h-7.8v36.2h-7.6L548.8,150.2z"/>
		<path id="Caminho_170" class="st1" d="M751,144.5v5.8h-7.8v36h-7.7v-35.9h-7.9v-5.9L751,144.5z"/>
		<path id="Caminho_171" class="st1" d="M470.1,150.2h-8v-5.7h23.4v5.6h-7.8v36.2h-7.6V150.2z"/>
		<rect id="Ret창ngulo_53" x="593.6" y="144.5" class="st1" width="7.3" height="41.9"/>
		<path id="Caminho_172" class="st1" d="M618.7,248.3c-4.2,0-7.6,0-7.6,0s-1-3-1.8-5.6c-2.4-7.5-4.7-15.1-7.6-22.5v28.2H595v-42
			c2.7,0,6.4,0,9.1,0.1c0,0,0.7,1.5,1,2.4c2.2,6.8,4.3,13.6,7,20.3v-22.7h6.6L618.7,248.3z"/>
		<path id="Caminho_173" class="st1" d="M489.4,221.8c-1.6,8.9-3.9,17.7-5.5,26.5c-4,0-7,0-7,0s-4.2-19.2-6-26v26.2h-6.6v-42.1
			c3-0.1,6-0.1,9,0.1c0.4,0,1.4,0.1,1.4,0.1s0.6,1.9,0.7,2.5c1.7,8.4,3.3,16.9,5.4,25.3c1.1-6,2.2-12.1,3.2-18.1c0.4-2.5,2-10,2-10
			s1.4,0,2.3,0c2.6,0.1,5.2,0,8.1,0v42.1h-6.9L489.4,221.8C489.1,221.7,489.7,221.7,489.4,221.8"/>
		<path id="Caminho_174" class="st1" d="M435.7,227.4c0-3.9-0.1-7.7,0-11.6c0.2-6.5,4.4-10.1,11.8-10c7.2,0,11.3,3.6,11.4,10.1
			c0.1,7.7,0.1,15.5,0,23.2c-0.1,6.5-4.2,10-11.4,10c-7.5,0-11.6-3.4-11.8-10C435.6,235.1,435.7,231.3,435.7,227.4 M451.2,227.6
			c0-3.7,0-7.5,0-11.2c0-2.7-1.1-4.5-4.1-4.4c-2.8,0.1-3.7,2-3.7,4.5c0,7.4,0,14.8,0,22.1c0,2.5,0.8,4.3,3.7,4.4
			c3.1,0.1,4-1.8,4-4.5C451.2,234.8,451.2,231.2,451.2,227.6"/>
		<path id="Caminho_175" class="st1" d="M528.4,206.5h7.3v3.5c0,9.3,0,18.5,0,27.8c0,3.7,1.2,5.1,4.1,5.1c3.3-0.1,3.9-2.2,3.9-5
			c0-10.4,0-20.7,0-31.3h7.3v14.2c0,6.1,0.1,12.1,0,18.2c-0.1,6.2-3.8,9.8-10.3,10c-7.9,0.3-12.4-2.7-12.6-9.4
			c-0.3-10.7-0.1-21.4-0.1-32.1C528.1,207.2,528.2,206.8,528.4,206.5"/>
		<path id="Caminho_176" class="st1" d="M639.1,231.2l-3.3-0.4v-5.6h10.3c0,5.6,0.5,11.2-0.2,16.7c-0.3,2.2-2.8,4.8-4.9,6
			c-3.7,2-7.9,1.7-11.9,0.2c-3.3-1.2-5.5-4.4-5.4-8c-0.1-8.4-0.2-16.8,0-25.2c0.1-4.8,2.9-7.7,7.6-8.7c3.9-0.8,7.8-0.8,11.2,1.5
			c4.6,3.1,4.2,7.8,3.8,12.6h-7.2c0-1.7,0.1-3.3,0-4.9c-0.1-2.3-1.5-3.4-3.6-3.5c-2.3-0.1-4.1,0.9-4.2,3.3c-0.1,8.2-0.1,16.3,0,24.5
			c0,2.4,1.9,3.3,4.2,3.2c2.2-0.1,3.5-1.3,3.6-3.5C639.1,236.7,639.1,234.1,639.1,231.2"/>
		<path id="Caminho_177" class="st1" d="M431.6,220.3h-7.1c0-1.7,0-3.2,0-4.7c0.2-1.9-1.2-3.6-3.1-3.8c-0.2,0-0.4,0-0.6,0
			c-2.3-0.1-4.1,1-4.1,3.3c-0.1,8.2-0.1,16.3,0,24.5c0,2.4,1.9,3.3,4.2,3.2c2.2-0.1,3.5-1.3,3.5-3.6c0.1-2,0-3.9,0-6.2h7.2
			c0.1,2.6,0.1,5.2-0.1,7.9c-0.2,3.1-2.2,5.7-5,6.9c-4,1.8-8.5,1.7-12.5,0c-3.2-1.3-5.2-4.5-5.1-7.9c-0.1-8.3-0.2-16.6,0-24.8
			c0.1-4.9,2.9-8.3,7.7-8.8c3.6-0.4,7.2,0.1,10.5,1.3C431.3,209,432.2,212.9,431.6,220.3"/>
		<path id="Caminho_178" class="st1" d="M509.3,232.8v15.6H502v-41.9c5,0,10-0.4,14.8,0.1c4.8,0.5,7.5,4,7.7,8.9
			c0.1,2.3,0.1,4.6,0,6.9c-0.1,6.2-3.2,9.5-9.5,10.1C513.4,232.7,511.6,232.7,509.3,232.8 M509.6,211.7v15.4c3,0,6.3,0.7,7.7-1.9
			c1.6-3.4,2.2-8.2,0.4-11.6C516.8,211.7,513.3,211.7,509.6,211.7"/>
		<path id="Caminho_179" class="st1" d="M562,248.4v-35.9h-7.9v-6h23.3v5.7h-7.8v36.2L562,248.4z"/>
		<rect id="Ret창ngulo_54" x="581.2" y="206.5" class="st1" width="7.4" height="41.9"/>
		<path id="Caminho_180" class="st1" d="M715.8,121.6h-4.7v-42c0.2-0.2,6.8,0,6.8,0s1.1,2.7,2,5c2.7,7.2,8.4,22.4,9.4,24v-29h4.6
			v41.6c-3.4,0-5.5-0.1-5.5-0.1s-11.3-30-12.6-32.3V121.6z"/>
		<path id="Caminho_181" class="st1" d="M597.5,121.6h-4.7v-42c0.2-0.2,6.8,0,6.8,0s1.1,2.7,2,5c2.7,7.2,8.4,22.4,9.4,24v-29h4.6
			v41.6c-3.4,0-5.5-0.1-5.5-0.1s-11.3-30-12.6-32.3L597.5,121.6z"/>
		<path id="Caminho_182" class="st1" d="M467.8,121.6h-4.7v-42c0.2-0.2,6.8,0,6.8,0s1.1,2.7,2,5c2.7,7.2,8.4,22.4,9.4,24v-29h4.6
			v41.6c-3.4,0-5.5-0.1-5.5-0.1s-11.3-30-12.6-32.3V121.6z"/>
		<path id="Caminho_183" class="st1" d="M557.1,101.2c4.6,2,5.4,5.8,5.2,10.1c-0.1,3.3,0,6.6,0,10c-4.9,0.4-5.4,0.6-5.4-4.4
			c0-2.1,0-4.2,0-6.3c-0.1-5.1-1.6-6.7-6.6-7c-1.3-0.1-2.6,0-4.2,0v17.9h-5.3V79.2c5.4,0.3,10.7,0.4,16,1.1c1.5,0.2,3.2,1.6,4.1,3
			C564.2,88.1,562.2,97.8,557.1,101.2 M546,83.8v15c5.1,0.9,8.3,0.5,9.7-2c1.8-3.1,2-6.9,0.5-10.2C554.8,83.2,549.5,84,546,83.8"/>
		<path id="Caminho_184" class="st1" d="M435.4,100.6c0-4-0.1-8,0-11.9c0.2-6.1,4.1-9.6,10.6-9.8c6.8-0.2,11.3,3,11.6,9.1
			c0.4,8.4,0.3,16.8,0,25.2c-0.2,6.1-4.8,9.3-11.5,9.1c-6.6-0.2-10.4-3.6-10.6-9.7C435.3,108.5,435.4,104.6,435.4,100.6
			 M452.2,100.6L452.2,100.6c0-3.9,0.1-7.7,0-11.6c-0.1-3.9-2-5.7-5.7-5.7c-3.6,0-5.6,1.9-5.6,5.8c-0.1,7.6-0.1,15.2,0,22.8
			c0,3.9,2,5.8,5.6,5.9c3.8,0,5.7-1.9,5.8-6C452.3,108.1,452.2,104.3,452.2,100.6"/>
		<path id="Caminho_185" class="st1" d="M705.9,100.6c0,3.9,0.1,7.7,0,11.6c-0.2,6.3-4,9.8-10.7,10.1s-11.3-3-11.6-9.1
			c-0.4-8.4-0.4-16.8,0-25.2c0.3-6.2,5-9.5,11.9-9.1c6.5,0.4,10.2,3.9,10.3,10.1C706,92.8,705.9,96.7,705.9,100.6 M700.4,100.5
			c0-3.7,0.1-7.5,0-11.2c-0.1-4-2-5.9-5.6-5.9c-3.7-0.1-5.7,1.7-5.8,5.6c-0.2,7.7-0.2,15.4,0,23.1c0.1,4,2.1,5.8,5.7,5.8
			c3.7,0,5.6-1.9,5.7-6.1C700.5,108,700.5,104.2,700.4,100.5"/>
		<path id="Caminho_186" class="st1" d="M567.9,79.6h19.8v4.1h-14.3V98h11.5v4.4h-11.5v14.9h14.2v4.2h-19.8V79.6z"/>
		<path id="Caminho_187" class="st1" d="M515.4,79.6h19.9v4.1h-14.3v14.2h11.5c0.1,1.5,0.2,2.8,0.2,4.4H521v15h14.2v4.2h-19.9V79.6z
			"/>
		<path id="Caminho_188" class="st1" d="M425.8,106.4h5.1c0.1,2.6,0.1,5.2-0.1,7.7c-0.7,5.3-4.9,8.2-11.1,8.1
			c-6.2-0.1-10.3-3.2-10.5-8.7c-0.3-8.6-0.3-17.2,0-25.8c0.2-5.7,4.6-8.9,11.1-8.8c6.5,0.1,10.4,3.5,10.7,9.3c0.1,1.6,0,3.3,0,5.1
			H426c-0.1-1.8-0.1-3.4-0.3-5c-0.4-3.3-2.2-4.9-5.5-4.9c-3.3,0-5.4,1.5-5.7,4.7c-0.3,3.4-0.1,6.8-0.2,10.3c0,4.5-0.1,9.1,0,13.6
			c0.1,3.9,2.1,5.9,5.6,5.9c3.6,0.1,5.5-1.8,5.8-5.7C425.9,110.4,425.8,108.6,425.8,106.4"/>
		<path id="Caminho_189" class="st1" d="M642.9,93.3h-4.9c-0.1-1.7-0.1-3.2-0.3-4.7c-0.3-3.6-2.1-5.2-5.5-5.2
			c-3.6,0-5.7,1.7-5.8,5.3c-0.2,5.3-0.1,10.6-0.1,15.9c0,2.5-0.1,5.1,0,7.6c0.2,3.9,2.2,5.8,5.8,5.7c3.5,0,5.3-1.8,5.5-5.6
			c0.1-1.8,0-3.7,0-5.8h5c0,2.8,0.4,5.5-0.1,8.2c-0.8,5.2-5.3,7.9-11.5,7.6c-6-0.3-9.9-3.4-10.1-8.8c-0.3-8.6-0.3-17.2,0-25.8
			c0.2-5.7,4.7-8.9,11.1-8.8c6.3,0.1,10.2,3.4,10.7,9C643,89.6,642.9,91.3,642.9,93.3"/>
		<path id="Caminho_190" class="st1" d="M648.1,121.6v-42h19.7v4h-14.2V98h11.5v4.3h-11.4v15h14.3v4.2H648.1z"/>
		<path id="Caminho_191" class="st1" d="M491.9,79.5h18.9c0.1,1.3,0.1,2.4,0.2,4h-13.7V99h10.8v4.2h-11v18.3h-5.2L491.9,79.5z"/>
		<path id="Caminho_192" class="st1" d="M701.4,56.2c-3.3,0.2-5.5,0.1-5.5,0.1s-0.5-2-1-4.1c-0.3-1.3-0.6-2.6-1-4.2h-12.1
			c-0.4,1.6-0.7,3.2-1.1,4.8c-0.3,1.1-0.8,3.4-0.8,3.4s-1.9,0.1-5.1,0c1.4-6.2,2.7-12.4,4.1-18.6c1.5-6.7,2.7-13.4,4.4-20
			c0.3-1.3,0.8-3.4,0.8-3.4s2.2,0,3.6,0c1.4,0,2.8,0,4.4,0C695.3,28.3,698.3,42.2,701.4,56.2 M693.2,43.8c-1.8-7.8-3.7-15.6-5.3-23
			c-0.2,0,0.2,0,0,0c-1.6,7.5-3.6,15.3-5.3,23H693.2z"/>
		<path id="Caminho_193" class="st1" d="M652.6,56.4h-4.7v-42c0.2-0.2,6.8,0,6.8,0s1.1,2.7,2,5c2.7,7.2,8.4,22.4,9.4,24v-29h4.6V56
			c-3.4,0-5.5-0.1-5.5-0.1s-11.3-30-12.6-32.3L652.6,56.4z"/>
		<path id="Caminho_194" class="st1" d="M531,56.4h-4.7v-42c0.2-0.2,6.8,0,6.8,0s1.1,2.7,2,5c2.7,7.2,8.4,22.4,9.4,24v-29h4.6V56
			c-3.4,0-5.5-0.1-5.5-0.1s-11.3-30-12.6-32.3V56.4z"/>
		<path id="Caminho_195" class="st1" d="M424.7,56.4H420v-42c0.2-0.2,6.8,0,6.8,0s1.1,2.7,2,5c2.7,7.2,8.4,22.4,9.4,24v-29h4.6V56
			c-3.4,0-5.5-0.1-5.5-0.1s-11.3-30-12.6-32.3V56.4z"/>
		<path id="Caminho_196" class="st1" d="M498.8,14.2c4.5,0,8.7-0.2,12.9,0c5.9,0.3,8.7,3.5,8.8,9.4c0.1,4.7,0.6,9.5-5.5,12.2
			c5.8,2.3,5.7,7,5.6,11.7c-0.1,2.8,0,5.7,0,8.6c-4.9,1-5.4,0.5-5.4-4.9c0-1.8,0-3.5,0-5.3c0-5.8-1.6-7.4-7.5-7.6
			c-1.1,0-2.1,0-3.6,0v18h-5.3L498.8,14.2z M504.1,18.5c0,4.7,0,8.8,0,13c0,0.7,0.1,1.5,0.2,2.5c3.5-0.2,8,1.3,9.6-2.4
			c1.3-3.4,1.4-7.2,0.1-10.7C512.5,17,508,18.8,504.1,18.5"/>
		<path id="Caminho_197" class="st1" d="M642.5,35.4c0,3.9,0.1,7.7,0,11.6c-0.2,6.2-3.9,9.7-10.4,10c-6.7,0.4-11.5-2.8-11.8-8.9
			c-0.4-8.5-0.4-17,0-25.5c0.3-6.2,5.1-9.4,12-9c6.5,0.4,10.1,3.9,10.3,10.2C642.5,27.7,642.5,31.5,642.5,35.4 M637,35.4
			c0-3.7,0.1-7.5,0-11.2c-0.1-4.1-1.9-6-5.4-6.1c-3.8-0.2-6,1.6-6.1,5.7c-0.2,7.7-0.2,15.4,0,23.1c0.1,3.9,2.2,5.7,5.8,5.6
			c3.6-0.1,5.5-2,5.6-5.9C637.1,42.9,637,39.2,637,35.4"/>
		<path id="Caminho_198" class="st1" d="M581.4,56.2c-3.3,0.2-5.5,0.1-5.5,0.1s-0.5-2-1-4.1c-0.3-1.3-0.6-2.6-1-4.2h-12.1
			c-0.4,1.6-0.7,3.2-1.1,4.8c-0.3,1.1-0.8,3.4-0.8,3.4s-1.9,0.1-5.1,0c1.4-6.2,2.7-12.4,4.1-18.6c1.5-6.7,2.7-13.4,4.4-20
			c0.3-1.3,0.8-3.4,0.8-3.4s2.2,0,3.6,0c1.4,0,2.8,0,4.4,0C575.2,28.3,578.3,42.2,581.4,56.2 M573.2,43.8c-1.8-7.8-3.7-15.6-5.3-23
			c-0.2,0,0.2,0,0,0c-1.6,7.5-3.6,15.3-5.3,23H573.2z"/>
		<path id="Caminho_199" class="st1" d="M473.8,14.3h19.7v4.3h-14.3v14.2h11.6c0.1,1.6,0.1,2.8,0.2,4.4h-11.7V52h14.2v4.3h-19.6
			V14.3z"/>
		<path id="Caminho_200" class="st1" d="M469.9,14.4v4.1H461v37.9h-5.4V18.5h-8.9v-4.1L469.9,14.4z"/>
		<path id="Caminho_201" class="st1" d="M591.5,18.5h-9v-4.1h23.1v4.1h-8.8v37.8h-5.3V18.5z"/>
		<path id="Caminho_202" class="st1" d="M706,56.3V14.4h5.1V52H725v4.3H706z"/>
		<rect id="Ret창ngulo_55" x="408.9" y="14.4" class="st1" width="5.2" height="41.9"/>
		<rect id="Ret창ngulo_56" x="609.9" y="14.3" class="st1" width="5" height="41.9"/>
	</g>
</g>
</svg>
